<?xml version="1.0" encoding="UTF-8" standalone="no"?><!DOCTYPE svg PUBLIC "-//W3C//DTD SVG 1.1//EN" "http://www.w3.org/Graphics/SVG/1.1/DTD/svg11.dtd"><svg width="100%" height="100%" viewBox="0 0 2048 2048" version="1.1" xmlns="http://www.w3.org/2000/svg" xmlns:xlink="http://www.w3.org/1999/xlink" xml:space="preserve" xmlns:serif="http://www.serif.com/" style="fill-rule:evenodd;clip-rule:evenodd;stroke-linejoin:round;stroke-miterlimit:2;"><path d="M952.08,1784.85l143.84,0c54.83,0 96.842,-33.468 109.66,-86.161l30.619,-133.159l22.786,-7.832l116.069,71.207c46.285,29.195 99.691,22.075 138.855,-17.09l99.691,-98.978c39.164,-39.164 46.285,-93.282 17.089,-138.855l-72.631,-115.357l8.545,-21.362l133.158,-31.331c51.982,-12.818 86.161,-55.542 86.161,-109.66l0,-140.991c0,-54.118 -33.467,-96.843 -86.161,-109.66l-131.734,-32.044l-9.257,-22.786l72.632,-115.357c29.195,-45.573 22.074,-98.978 -17.09,-138.855l-99.691,-99.69c-38.452,-38.452 -91.858,-45.573 -138.143,-17.09l-116.068,71.207l-24.211,-9.257l-30.619,-133.158c-12.818,-52.694 -54.83,-86.161 -109.66,-86.161l-143.84,-0c-54.83,-0 -96.842,33.467 -109.66,86.161l-31.331,133.158l-24.211,9.257l-115.356,-71.207c-46.285,-28.483 -100.403,-21.362 -138.855,17.09l-98.979,99.69c-39.164,39.877 -46.997,93.282 -17.09,138.855l71.92,115.357l-8.545,22.786l-131.734,32.044c-52.694,12.817 -86.161,55.542 -86.161,109.66l-0,140.991c-0,54.118 34.179,96.842 86.161,109.66l133.158,31.331l7.833,21.362l-71.919,115.357c-29.908,45.573 -22.075,99.691 17.089,138.855l98.979,98.978c39.164,39.165 93.282,46.285 139.567,17.09l115.357,-71.207l22.786,7.832l31.331,133.159c12.818,52.693 54.83,86.161 109.66,86.161Zm11.393,-111.084c-12.105,0 -18.514,-4.984 -20.65,-16.378l-42.724,-176.595c-43.437,-10.681 -84.025,-27.771 -114.645,-46.997l-155.232,95.419c-8.545,6.408 -17.802,4.984 -26.347,-3.561l-84.025,-84.025c-7.833,-7.833 -8.545,-16.378 -2.849,-26.347l95.419,-153.808c-16.378,-29.908 -34.892,-70.496 -46.285,-113.933l-176.595,-42.012c-11.394,-2.136 -16.378,-8.545 -16.378,-20.65l-0,-118.917c-0,-12.818 4.272,-18.514 16.378,-20.65l175.883,-42.725c11.393,-46.285 32.755,-88.298 45.572,-114.644l-94.706,-153.809c-6.408,-10.681 -5.696,-19.226 2.136,-27.771l84.738,-82.601c8.545,-8.545 16.377,-9.969 27.059,-3.56l153.808,93.282c30.619,-17.09 74.056,-34.892 116.781,-46.997l42.012,-176.595c2.136,-11.394 8.545,-16.378 20.65,-16.378l121.054,-0c12.105,-0 18.514,4.984 19.938,16.378l43.436,178.019c44.149,11.393 82.601,29.195 114.645,46.285l154.52,-93.994c11.394,-6.409 18.514,-4.985 27.771,3.56l84.025,82.601c8.545,8.545 8.545,17.09 2.137,27.771l-94.707,153.809c13.53,26.346 34.18,68.359 45.573,114.644l176.595,42.725c11.394,2.136 16.378,7.832 16.378,20.65l0,118.917c0,12.105 -5.696,18.514 -16.378,20.65l-177.307,42.012c-11.393,43.437 -29.195,84.025 -46.285,113.933l95.419,153.808c5.696,9.969 5.696,18.514 -2.849,26.347l-83.313,84.025c-9.257,8.545 -17.802,9.969 -27.059,3.561l-155.232,-95.419c-30.62,19.226 -70.496,36.316 -113.933,46.997l-43.436,176.595c-1.424,11.394 -7.833,16.378 -19.938,16.378l-121.054,0Zm60.527,-378.113c148.824,0 271.301,-122.477 271.301,-272.013c0,-148.112 -122.477,-270.589 -271.301,-270.589c-148.824,-0 -272.013,122.477 -272.013,270.589c-0,148.824 122.477,272.013 272.013,272.013Zm-0,-110.372c-88.298,0 -160.929,-72.631 -160.929,-161.641c-0,-87.585 72.631,-160.217 160.929,-160.217c86.873,-0 159.505,72.632 159.505,160.217c0,88.297 -72.632,161.641 -159.505,161.641Z" style="fill-rule:nonzero;"/></svg>